<svg width="128" height="82" viewBox="0 0 128 82" fill="none" xmlns="http://www.w3.org/2000/svg">
<path d="M46.8536 41C46.8441 28.1495 53.2631 16.1212 63.9991 8.86436C46.0353 -3.29859 21.4927 1.22651 9.18143 18.9738C-3.12985 36.7211 1.45044 60.968 19.4142 73.131C32.8494 82.2276 50.5639 82.2276 63.9991 73.131C53.2631 65.8741 46.8489 53.8459 46.8536 40.9954V41Z" stroke="white" stroke-width="3"/>
<path d="M81.1455 41C81.1549 53.8505 74.7359 65.8788 64 73.1356C81.9637 85.2986 106.506 80.7735 118.818 63.0262C131.129 45.2789 126.549 21.032 108.585 8.86901C95.1497 -0.227648 77.4352 -0.227648 64 8.86901C74.7359 16.1259 81.1502 28.1541 81.1455 41.0046V41Z" stroke="white" stroke-width="3"/>
</svg>
