<svg width="133" height="41" viewBox="0 0 133 41" fill="none" xmlns="http://www.w3.org/2000/svg">
<path d="M132.287 27.6261V0.5H111.641V40.497L132.287 27.6261Z" fill="#ED1B2F"/>
<path d="M111.641 40.497L132.287 0.5V27.6261L111.641 40.497Z" fill="#A01D21"/>
<path d="M16.2131 27.6261H8.14299V7.68651H0.691406V0.5H23.6647V7.68651H16.2131V27.6261Z" fill="white"/>
<path d="M48.1708 7.27417H34.0628V10.5729H46.433V16.7875H34.0628V20.4102H48.8187V27.5967H26.2578V0.5H48.1708V7.27417Z" fill="white"/>
<path d="M60.6271 23.8856L59.449 27.6261H51.3789L60.6271 0.5H68.815L78.181 27.6261H69.9637L68.8445 23.8856H60.6271ZM64.7505 10.1606L62.4532 17.9361H67.0478L64.7505 10.1606Z" fill="white"/>
<path d="M91.6376 27.6261L87.8088 11.0736C87.8382 13.0764 87.8382 13.1353 87.8971 19.1142V27.6261H80.7695V0.5H91.2548L94.7007 15.0497L98.1467 0.5H108.603V27.6261H101.475V19.8506V15.9039L101.534 11.0736L97.7049 27.6261H91.6376Z" fill="white"/>
<path d="M132.283 27.6262H111.637C111.637 22.5309 113.227 20.0274 119.236 15.845C122.328 13.6066 122.505 13.4299 123.447 12.6347C124.419 11.7511 124.861 10.897 124.861 9.86611C124.861 8.2462 123.506 7.12699 121.857 7.12699C119.442 7.12699 118.323 8.65854 118.323 11.8395V12.6347H111.666V11.2798C111.666 4.65295 115.672 0.529541 122.269 0.529541C128.071 0.529541 132.313 4.12279 132.313 9.3065C132.313 11.6922 131.488 13.6655 129.809 15.4327C128.867 16.4047 128.366 16.7875 124.625 19.3499C123.742 19.939 123.388 20.2335 122.623 20.9699H132.313V27.6262H132.283Z" fill="white"/>
</svg>
